<svg width="22" height="22" viewBox="0 0 22 22" fill="none" xmlns="http://www.w3.org/2000/svg">
<path d="M19.2482 9.16668C19.2372 7.17293 19.1492 6.09309 18.4443 5.38909C17.6394 4.58334 16.3423 4.58334 13.75 4.58334H11C8.40767 4.58334 7.11058 4.58334 6.30575 5.38909C5.5 6.19393 5.5 7.49101 5.5 10.0833V14.6667C5.5 17.259 5.5 18.5561 6.30575 19.3609C7.11058 20.1667 8.40767 20.1667 11 20.1667H13.75C16.3423 20.1667 17.6394 20.1667 18.4443 19.3609C19.25 18.5561 19.25 17.259 19.25 14.6667V13.75" stroke="#505050" stroke-width="1.5" stroke-linecap="round"/>
<path d="M2.75 9.16668V14.6667C2.75 15.396 3.03973 16.0955 3.55546 16.6112C4.07118 17.1269 4.77065 17.4167 5.5 17.4167M16.5 4.58334C16.5 3.854 16.2103 3.15452 15.6945 2.6388C15.1788 2.12307 14.4793 1.83334 13.75 1.83334H10.0833C6.62658 1.83334 4.89775 1.83334 3.82433 2.90768C3.22483 3.50626 2.95992 4.30834 2.8435 5.50001" stroke="#505050" stroke-width="1.5" stroke-linecap="round"/>
</svg>
